<?xml version="1.0" standalone="no"?>
<!DOCTYPE svg PUBLIC "-//W3C//DTD SVG 20010904//EN"
 "http://www.w3.org/TR/2001/REC-SVG-20010904/DTD/svg10.dtd">
<svg version="1.0" xmlns="http://www.w3.org/2000/svg"
 width="313.000000pt" height="313.000000pt" viewBox="0 0 313.000000 313.000000"
 preserveAspectRatio="xMidYMid meet">
<metadata>
Created by potrace 1.14, written by Peter Selinger 2001-2017
</metadata>
<g transform="translate(0.000000,313.000000) scale(0.100000,-0.100000)"
fill="#000000" stroke="none">
<path d="M2093 3061 c-27 -9 -96 -48 -154 -86 -151 -101 -260 -154 -306 -150
-162 14 -240 5 -441 -50 -51 -13 -57 -13 -93 6 -21 10 -39 17 -39 13 0 -4 -6
-2 -12 3 -36 27 -209 72 -278 73 -77 0 -81 0 -111 -22 -50 -37 -75 -135 -73
-288 0 -57 6 -76 47 -158 l48 -93 -26 -50 c-14 -28 -25 -55 -25 -61 0 -5 -9
-23 -20 -38 -44 -62 -92 -176 -107 -255 -23 -120 -22 -277 2 -346 41 -116 159
-267 265 -339 31 -21 62 -45 69 -54 13 -16 22 -113 12 -131 -3 -5 -6 -14 -7
-20 -2 -5 -6 -28 -11 -50 -4 -22 -8 -87 -8 -145 0 -100 2 -109 34 -175 34 -68
152 -205 178 -205 6 0 13 -3 15 -8 2 -4 49 -36 106 -71 56 -35 120 -81 142
-101 44 -40 45 -55 11 -120 -11 -22 -16 -42 -11 -50 10 -16 168 -23 186 -8 12
9 8 44 -6 63 -5 6 -10 27 -13 49 -4 32 -1 43 18 62 28 28 71 31 94 7 24 -27
167 -103 192 -103 7 0 9 -12 5 -34 -8 -41 -3 -44 93 -41 49 2 76 7 82 16 4 7
4 16 0 19 -7 4 -13 27 -28 103 -1 9 1 17 6 17 5 0 12 8 15 18 9 25 116 136
154 158 17 10 32 22 32 26 0 4 4 8 10 8 27 0 140 117 176 183 25 46 28 62 29
142 0 97 -6 143 -29 218 -8 26 -12 47 -10 47 2 0 -3 17 -9 38 -20 56 -13 80
31 126 60 60 63 63 131 156 111 150 142 235 136 379 -7 187 -38 282 -154 469
-28 46 -51 87 -51 92 0 4 -28 49 -62 100 l-61 92 26 75 c15 41 24 79 21 84 -3
5 -1 9 3 9 16 0 2 104 -22 165 -13 33 -31 85 -39 115 -34 119 -76 150 -163
121z"/>
</g>
</svg>
